# xmcd
#
# Track frame offsets: 
#        150
#        128725
#        223453
#        332970
#
# Disc length: 4440 seconds
#
# Revision: 0
# Processed by: cddbd v1.5.2PL0 Copyright (c) Steve Scherf et al.
# Submitted via: ExactAudioCopy v0.95b4
#
DISCID=40115604
DTITLE=Hari Prasad Chaurasia - Shikhar
DYEAR=2004
DGENRE=Folk
TTITLE0=Rag Jaijavanti Alap
TTITLE1=Jor and Jhalla with Pakhawaj
TTITLE2=Matta Taal 9 Beats
TTITLE3=Dhun in Raga Pahadi
EXTD=
EXTT0=
EXTT1=
EXTT2=
EXTT3=
PLAYORDER=
